<svg width="64" height="56" viewBox="0 0 64 56" fill="none" xmlns="http://www.w3.org/2000/svg">
<path d="M52 16.4297C50.5315 17.0152 48.9456 17.4056 47.2896 17.5796C48.9843 16.6728 50.2816 15.2374 50.8977 13.5298C49.3118 14.3663 47.5546 14.9797 45.6874 15.3076C44.1877 13.8856 42.0556 13 39.6961 13C35.1657 13 31.4938 16.2769 31.4938 20.32C31.4938 20.891 31.5638 21.4487 31.7051 21.9863C24.8863 21.6796 18.84 18.7652 14.7945 14.3328C14.0909 15.4136 13.6859 16.6751 13.6859 18.0135C13.6859 20.5509 15.1307 22.7949 17.334 24.1066C15.9905 24.072 14.7257 23.7374 13.6159 23.1931C13.6159 23.221 13.6159 23.2556 13.6159 23.2835C13.6159 26.8314 16.4442 29.7948 20.201 30.4629C19.5136 30.6302 18.7875 30.7206 18.0376 30.7206C17.5065 30.7206 16.9991 30.6715 16.4917 30.5878C17.539 33.4944 20.5696 35.6136 24.154 35.6771C21.342 37.6424 17.8114 38.8146 13.9609 38.8146C13.2973 38.8146 12.6486 38.78 12 38.7097C15.6406 40.7943 19.951 42 24.5839 42C39.6748 42 47.9308 30.8399 47.9308 21.1643C47.9308 20.8442 47.9233 20.5297 47.907 20.2163C49.508 19.1913 50.899 17.9019 52 16.4308V16.4297Z" fill="#FEC63E"/>
<rect x="1.5" y="1.5" width="60.14" height="53" stroke="#FEC63E" stroke-width="3"/>
</svg>
