<svg width="64" height="56" viewBox="0 0 64 56" fill="none" xmlns="http://www.w3.org/2000/svg">
<g clip-path="url(#clip0_255_62)">
<path d="M31 13.1512C35.8094 13.1512 36.3786 13.172 38.2697 13.254C40.0281 13.3295 40.9765 13.6161 41.6099 13.8556C42.4469 14.1706 43.051 14.5534 43.6765 15.1615C44.3099 15.7773 44.6958 16.3581 45.0265 17.1718C45.2729 17.7876 45.5676 18.7162 45.6452 20.4192C45.7296 22.2654 45.751 22.8189 45.751 27.4881C45.751 32.1573 45.7296 32.7173 45.6452 34.557C45.5676 36.2665 45.2729 37.1886 45.0265 37.8043C44.7025 38.6181 44.3099 39.2054 43.6833 39.8136C43.0499 40.4293 42.4525 40.8045 41.6166 41.1261C40.9833 41.3656 40.027 41.6522 38.2765 41.7276C36.3775 41.8097 35.8082 41.8304 31.0056 41.8304C26.203 41.8304 25.627 41.8097 23.7347 41.7276C21.9764 41.6522 21.028 41.3656 20.3946 41.1261C19.5576 40.8111 18.9535 40.4293 18.3269 39.8201C17.6935 39.2043 17.3076 38.6236 16.9769 37.8109C16.7305 37.1951 16.4357 36.2654 16.3581 34.5636C16.2737 32.7173 16.2524 32.1639 16.2524 27.4947C16.2524 22.8254 16.2737 22.2654 16.3581 20.4257C16.4357 18.7162 16.7305 17.7942 16.9769 17.1784C17.3009 16.3646 17.6946 15.7773 18.3201 15.1681C18.9535 14.5523 19.5509 14.1771 20.3879 13.8556C21.0212 13.6161 21.9764 13.3295 23.728 13.254C25.6191 13.172 26.1895 13.1512 30.9989 13.1512H31ZM31 10.0001C26.113 10.0001 25.5021 10.0209 23.5818 10.1029C21.6693 10.185 20.3541 10.4857 19.2156 10.9167C18.0276 11.3673 17.0219 11.9623 16.024 12.9401C15.0182 13.9114 14.4062 14.8881 13.9427 16.0365C13.4995 17.1511 13.1901 18.422 13.1057 20.2814C13.0214 22.155 13 22.7489 13 27.5001C13 32.2514 13.0214 32.8453 13.1057 34.7123C13.1901 36.5717 13.4995 37.8503 13.9427 38.9572C14.4074 40.1122 15.0182 41.09 16.024 42.0601C17.0219 43.0303 18.0276 43.6329 19.2089 44.077C20.3553 44.5079 21.6625 44.8087 23.575 44.8907C25.4942 44.9728 26.1063 44.9936 30.9933 44.9936C35.8803 44.9936 36.4922 44.9728 38.4115 44.8907C40.324 44.8087 41.6391 44.5079 42.7776 44.077C43.9589 43.6329 44.9646 43.0314 45.9625 42.0601C46.9604 41.0889 47.5802 40.1122 48.037 38.9637C48.4802 37.8492 48.7896 36.5782 48.874 34.7189C48.9584 32.8529 48.9798 32.2579 48.9798 27.5067C48.9798 22.7554 48.9584 22.1615 48.874 20.2945C48.7896 18.4351 48.4802 17.1565 48.037 16.0496C47.5937 14.887 46.9817 13.9103 45.9771 12.939C44.9792 11.9689 43.9735 11.3662 42.7923 10.9221C41.6459 10.4912 40.3386 10.1904 38.4261 10.1084C36.5001 10.0198 35.8881 9.99902 31.0011 9.99902L31 10.0001Z" fill="#FEC63E"/>
<path d="M30.9998 18.5107C25.8957 18.5107 21.7534 22.5368 21.7534 27.5003C21.7534 32.4637 25.8945 36.4898 30.9998 36.4898C36.105 36.4898 40.2462 32.4637 40.2462 27.5003C40.2462 22.5379 36.105 18.5107 30.9998 18.5107ZM30.9998 33.3311C27.6878 33.3311 25.0024 30.7203 25.0024 27.5003C25.0024 24.2803 27.6878 21.6695 30.9998 21.6695C34.3118 21.6695 36.9972 24.2803 36.9972 27.5003C36.9972 30.7203 34.3118 33.3311 30.9998 33.3311Z" fill="#FEC63E"/>
<path d="M42.7699 18.1546C42.7699 19.3139 41.8035 20.2535 40.611 20.2535C39.4185 20.2535 38.4521 19.3139 38.4521 18.1546C38.4521 16.9952 39.4185 16.0557 40.611 16.0557C41.8035 16.0557 42.7699 16.9952 42.7699 18.1546Z" fill="#FEC63E"/>
</g>
<rect x="1.5" y="1.5" width="60.1429" height="53" stroke="#FEC63E" stroke-width="3"/>
<defs>
<clipPath id="clip0_255_62">
<rect width="36" height="35" fill="white" transform="translate(13 10)"/>
</clipPath>
</defs>
</svg>
